# Blender 5.1.2
# www.blender.org
mtllib Frustum.mtl
o Cube
v -1.000000 -1.000000 5.531675
v -1.000000 1.000000 5.531675
v -3.416637 -3.416637 -3.739249
v -3.416637 3.416637 -3.739249
v 1.000000 -1.000000 5.531675
v 1.000000 1.000000 5.531675
v 3.416637 -3.416637 -3.739249
v 3.416637 3.416637 -3.739249
vn -0.9677 -0.0000 0.2522
vn -0.0000 -0.0000 -1.0000
vn -0.0000 -0.0000 1.0000
vn -0.0000 -0.9677 0.2522
vt 0.375000 0.000000
vt 0.625000 0.000000
vt 0.625000 0.250000
vt 0.375000 0.250000
vt 0.625000 0.500000
vt 0.375000 0.500000
vt 0.375000 0.750000
vt 0.625000 0.750000
vt 0.625000 1.000000
vt 0.375000 1.000000
vt 0.125000 0.500000
vt 0.125000 0.750000
s 0
f 1/1/1 2/2/1 4/3/1 3/4/1
f 3/4/2 4/3/2 8/5/2 7/6/2
f 5/7/3 6/8/3 2/9/3 1/10/3
f 3/11/4 7/6/4 5/7/4 1/12/4
